<?xml version="1.0" encoding="UTF-8"?>
<svg version="1.1" xmlns="http://www.w3.org/2000/svg" width="3333" height="3333">
<path d="M0 0 C4.35193013 0.00420025 8.7038438 -0.00324848 13.05576982 -0.00915251 C20.67102977 -0.01788763 28.28626282 -0.01923622 35.90152653 -0.01564924 C47.22618905 -0.01032919 58.55082566 -0.01645062 69.87548537 -0.02473217 C91.28081264 -0.03995579 112.68612806 -0.04167892 134.09145961 -0.03920914 C150.62357214 -0.03737497 167.1556808 -0.03913869 183.68779285 -0.04343358 C186.0647395 -0.04403599 188.44168615 -0.04463719 190.8186328 -0.04523719 C194.4006714 -0.04614446 197.98271 -0.04705313 201.5647486 -0.04796954 C234.86012277 -0.05639666 268.15549549 -0.06073643 301.45087059 -0.05656282 C303.33282609 -0.05632825 303.33282609 -0.05632825 305.2528009 -0.05608895 C311.61148512 -0.05528319 317.97016932 -0.05443742 324.32885353 -0.05357565 C325.59165906 -0.05340456 326.8544646 -0.05323347 328.15553697 -0.0530572 C330.70923525 -0.05271054 333.26293353 -0.05236201 335.8166318 -0.05201161 C375.54855783 -0.04665491 415.28046165 -0.05458439 455.01238354 -0.07304517 C499.67460637 -0.09377253 544.33681545 -0.10448647 588.99904336 -0.10046969 C593.76349794 -0.10007435 598.52795253 -0.0997128 603.29240711 -0.0993723 C605.05203798 -0.09923621 605.05203798 -0.09923621 606.84721695 -0.09909736 C624.53696951 -0.0979326 642.22670816 -0.10457047 659.91645725 -0.11518422 C680.04092347 -0.12724664 700.1653591 -0.12878317 720.28982578 -0.11639406 C731.54309768 -0.10977585 742.7962964 -0.11137255 754.04956242 -0.12498257 C761.57815719 -0.13325091 769.10669736 -0.13049865 776.63528773 -0.1190073 C780.91697297 -0.11277448 785.19851583 -0.11108847 789.48019264 -0.12287064 C825.27559564 -0.21444515 859.2357659 2.94833801 889.3246394 24.26313647 C890.8077058 25.30147631 890.8077058 25.30147631 892.32073315 26.36079272 C922.78985588 48.69984354 940.92151531 79.48986895 948.3246394 116.26313647 C948.49694574 117.0577891 948.66925209 117.85244172 948.84677984 118.67117473 C949.53181427 123.82042295 949.45980511 128.9163075 949.44768722 134.10537394 C949.44884107 135.3127307 949.44999491 136.52008745 949.45118372 137.76403078 C949.45337799 141.12221129 949.45107819 144.48033482 949.44690559 147.8385099 C949.4434713 151.48924319 949.44584221 155.13997341 949.44748308 158.79070731 C949.44955744 165.19123741 949.44791197 171.59175822 949.44384487 177.99228724 C949.43781401 187.50966497 949.43750868 197.02703683 949.43838686 206.54441611 C949.43970136 222.55355184 949.43635708 238.56268344 949.43036945 254.57181796 C949.42445503 270.42581444 949.42060403 286.27980921 949.41951664 302.13380679 C949.4194479 303.11908691 949.41937916 304.10436703 949.41930834 305.11950413 C949.41897001 310.12312231 949.41866862 315.12674049 949.41838146 320.13035867 C949.41628033 355.58282223 949.40954097 391.03528355 949.40007885 426.48774584 C949.3908964 460.93208166 949.38381181 495.37641686 949.37957104 529.82075366 C949.37943951 530.88223825 949.37930798 531.94372285 949.37917247 533.03737365 C949.37785397 543.69711327 949.37657815 554.3568529 949.37533361 565.01659253 C949.37279731 586.73224759 949.36997606 608.44790261 949.36698254 630.16355761 C949.36684525 631.1620365 949.36670796 632.16051538 949.36656651 633.1892512 C949.35736384 699.88054723 949.34151841 766.571842 949.3246394 833.26313647 C949.92533437 833.26298049 950.52602934 833.26282451 951.14492719 833.2626638 C1016.55737479 833.24571391 1081.96982264 833.23000898 1147.38227184 833.22079333 C1148.35969246 833.22065527 1149.33711309 833.22051722 1150.34415251 833.22037498 C1171.58717053 833.21738193 1192.83018857 833.21461176 1214.07320665 833.21207114 C1224.49108332 833.21082383 1234.90895999 833.20952727 1245.32683666 833.20820483 C1246.88187581 833.20800869 1246.88187581 833.20800869 1248.4683299 833.20780859 C1282.05826209 833.20354879 1315.64819261 833.19603863 1349.23812379 833.18683925 C1383.76197386 833.17740129 1418.285823 833.17124978 1452.80967434 833.16922148 C1457.6881934 833.16893333 1462.56671246 833.1686077 1467.44523151 833.16825923 C1468.40537491 833.1681918 1469.3655183 833.16812438 1470.35475695 833.16805491 C1485.79778888 833.16687413 1501.24081793 833.16223858 1516.68384869 833.15630444 C1532.21694001 833.15040965 1547.75002848 833.14817038 1563.28312088 833.14963509 C1572.50662338 833.15039449 1581.73011541 833.14837847 1590.95361602 833.14233893 C1597.12344149 833.13857572 1603.29326015 833.13848215 1609.4630861 833.14130466 C1612.97307202 833.14280732 1616.48303821 833.14277897 1619.99302197 833.13825329 C1657.99426873 833.09783341 1657.99426873 833.09783341 1671.3246394 835.95063647 C1672.15511791 836.12433764 1672.98559643 836.29803881 1673.84124096 836.47700366 C1699.63002837 842.14994698 1722.50682188 854.86998057 1741.3246394 873.26313647 C1742.18702221 874.06364428 1743.04940502 874.86415209 1743.93792065 875.68891772 C1761.36935371 892.25284556 1772.75682625 914.66448385 1779.0746394 937.63813647 C1779.27347729 938.34365649 1779.47231518 939.04917651 1779.67717846 939.77607592 C1784.42668852 958.11219903 1783.61549162 977.16221513 1783.58777587 995.93849707 C1783.58357562 1000.29042721 1783.59102435 1004.64234087 1783.59692837 1008.99426689 C1783.60566349 1016.60952684 1783.60701208 1024.22475989 1783.6034251 1031.8400236 C1783.59810505 1043.16468613 1783.60422649 1054.48932274 1783.61250803 1065.81398245 C1783.62773165 1087.21930971 1783.62945478 1108.62462514 1783.62698501 1130.02995668 C1783.62515084 1146.56206922 1783.62691455 1163.09417788 1783.63120945 1179.62628993 C1783.63181186 1182.00323658 1783.63241305 1184.38018323 1783.63301305 1186.75712988 C1783.63392033 1190.33916847 1783.63482899 1193.92120707 1783.6357454 1197.50324567 C1783.64417253 1230.79861985 1783.6485123 1264.09399257 1783.64433868 1297.38936766 C1783.64418231 1298.64400467 1783.64402593 1299.89864167 1783.64386482 1301.19129798 C1783.64305906 1307.54998219 1783.64221329 1313.9086664 1783.64135151 1320.2673506 C1783.64118043 1321.53015614 1783.64100934 1322.79296167 1783.64083307 1324.09403405 C1783.64048641 1326.64773232 1783.64013788 1329.2014306 1783.63978748 1331.75512888 C1783.63443077 1371.4870549 1783.64236026 1411.21895873 1783.66082104 1450.95088061 C1783.6815484 1495.61310344 1783.69226234 1540.27531252 1783.68824555 1584.93754044 C1783.68785022 1589.70199502 1783.68748867 1594.4664496 1783.68714817 1599.23090419 C1783.68701207 1600.99053506 1783.68701207 1600.99053506 1783.68687323 1602.78571402 C1783.68570846 1620.47546658 1783.69234634 1638.16520524 1783.70296009 1655.85495433 C1783.71502251 1675.97942054 1783.71655903 1696.10385617 1783.70416992 1716.22832285 C1783.69755171 1727.48159476 1783.69914841 1738.73479348 1783.71275844 1749.9880595 C1783.72102678 1757.51665427 1783.71827452 1765.04519443 1783.70678317 1772.5737848 C1783.70055034 1776.85547005 1783.69886434 1781.13701291 1783.7106465 1785.41868971 C1783.80222101 1821.21409271 1780.63943785 1855.17426297 1759.3246394 1885.26313647 C1758.63241283 1886.25184741 1757.94018627 1887.24055834 1757.22698315 1888.25923022 C1734.88793233 1918.72835296 1704.09790692 1936.86001238 1667.3246394 1944.26313647 C1666.13314362 1944.52159599 1666.13314362 1944.52159599 1664.91757722 1944.78527691 C1659.7629219 1945.47084439 1654.66127756 1945.39829759 1649.46678455 1945.3861843 C1648.25773942 1945.38733814 1647.04869429 1945.38849199 1645.80301143 1945.3896808 C1642.44009577 1945.39187509 1639.077237 1945.38957524 1635.71432676 1945.38540266 C1632.05846045 1945.38196841 1628.4025972 1945.38433927 1624.74673028 1945.38598015 C1618.33718781 1945.38805452 1611.92765461 1945.38640903 1605.51811321 1945.38234194 C1595.98733423 1945.37631111 1586.45656111 1945.37600575 1576.92578057 1945.37688393 C1560.89410594 1945.37819843 1544.86243542 1945.37485414 1528.83076198 1945.36886653 C1512.95443681 1945.36295211 1497.07811334 1945.35910111 1481.20178707 1945.35801371 C1479.72178737 1945.3579106 1479.72178737 1945.3579106 1478.21188868 1945.35780541 C1473.20123045 1945.35746708 1468.19057223 1945.3571657 1463.179914 1945.35687853 C1427.67753614 1945.3547774 1392.17516052 1945.34803804 1356.67278393 1945.33857592 C1322.17994551 1945.32939347 1287.6871077 1945.32230889 1253.1942683 1945.31806811 C1251.59980032 1945.31787082 1251.59980032 1945.31787082 1249.97312087 1945.31766955 C1239.29837785 1945.31635104 1228.62363482 1945.31507522 1217.94889179 1945.31383069 C1196.20267083 1945.31129439 1174.4564499 1945.30847313 1152.710229 1945.30547961 C1151.71034462 1945.30534232 1150.71046025 1945.30520503 1149.68027635 1945.30506358 C1082.8950631 1945.29586091 1016.10985109 1945.28001548 949.3246394 1945.26313647 C949.32526332 1945.87812162 949.32588724 1946.49310677 949.32653007 1947.12672783 C949.39433746 2014.10311627 949.4571561 2081.07950865 949.49401195 2148.05592211 C949.49456418 2149.0568941 949.49511641 2150.05786609 949.49568537 2151.08917056 C949.50765789 2172.84464872 949.51873849 2194.60012725 949.52890071 2216.35560633 C949.53388992 2227.02497843 949.53907616 2237.69435044 949.54436596 2248.36372241 C949.54488899 2249.42543522 949.54541203 2250.48714804 949.54595092 2251.58103397 C949.56298664 2285.97454078 949.59302467 2320.36802126 949.62982828 2354.76151212 C949.66758995 2390.11465304 949.69218843 2425.4677794 949.70029936 2460.82094015 C949.70145192 2465.81796105 949.70275447 2470.8149819 949.70414837 2475.81200274 C949.70441806 2476.79545742 949.70468775 2477.77891211 949.70496562 2478.79216844 C949.70968665 2494.60284164 949.72822311 2510.41346969 949.75196753 2526.2241245 C949.77556076 2542.13142567 949.78450025 2558.03868223 949.77864491 2573.94600027 C949.77560996 2583.38888899 949.78364742 2592.83161404 949.80782957 2602.27447311 C949.82290354 2608.59435504 949.82324213 2614.91413062 949.81196665 2621.23402009 C949.80596669 2624.82733986 949.80602321 2628.42035161 949.82417213 2632.01363748 C950.01608306 2672.41863861 938.96350741 2707.96305361 910.3246394 2737.26313647 C909.52413158 2738.12551928 908.72362377 2738.98790209 907.89885815 2739.87641772 C891.3349303 2757.30785078 868.92329201 2768.69532333 845.9496394 2775.01313647 C845.24411938 2775.21197436 844.53859936 2775.41081225 843.81169994 2775.61567553 C825.47557684 2780.36518559 806.42556074 2779.5539887 787.64927879 2779.52627294 C783.29734866 2779.52207269 778.945435 2779.52952142 774.59350897 2779.53542545 C766.97824902 2779.54416056 759.36301598 2779.54550916 751.74775227 2779.54192218 C740.42308974 2779.53660213 729.09845313 2779.54272356 717.77379342 2779.55100511 C696.36846615 2779.56622872 674.96315073 2779.56795185 653.55781918 2779.56548208 C637.02570665 2779.56364791 620.49359799 2779.56541162 603.96148594 2779.56970652 C601.58453929 2779.57030893 599.20759264 2779.57091013 596.83064599 2779.57151013 C593.24860739 2779.5724174 589.66656879 2779.57332607 586.0845302 2779.57424248 C552.78915602 2779.5826696 519.4937833 2779.58700937 486.1984082 2779.58283576 C484.9437712 2779.58267938 483.68913419 2779.58252301 482.39647789 2779.58236189 C476.03779368 2779.58155613 469.67910947 2779.58071036 463.32042527 2779.57984859 C462.05761973 2779.5796775 460.79481419 2779.57950641 459.49374182 2779.57933014 C456.94004354 2779.57898348 454.38634527 2779.57863495 451.83264699 2779.57828455 C412.10072097 2779.57292785 372.36881714 2779.58085733 332.63689526 2779.59931811 C287.97467242 2779.62004547 243.31246334 2779.63075941 198.65023543 2779.62674262 C193.88578085 2779.62634729 189.12132627 2779.62598574 184.35687168 2779.62564524 C182.59724081 2779.62550915 182.59724081 2779.62550915 180.80206184 2779.6253703 C163.11230928 2779.62420554 145.42257063 2779.63084341 127.73282154 2779.64145716 C107.60835532 2779.65351958 87.4839197 2779.65505611 67.35945302 2779.642667 C56.10618111 2779.63604879 44.85298239 2779.63764548 33.59971637 2779.65125551 C26.0711216 2779.65952385 18.54258143 2779.65677159 11.01399107 2779.64528024 C6.73230582 2779.63904742 2.45076296 2779.63736141 -1.83091385 2779.64914358 C-37.62631685 2779.74071809 -71.58648711 2776.57793493 -101.6753606 2755.26313647 C-102.66407154 2754.57090991 -103.65278248 2753.87868334 -104.67145435 2753.16548022 C-135.14057709 2730.8264294 -153.27223652 2700.03640399 -160.6753606 2663.26313647 C-160.84766695 2662.46880595 -161.0199733 2661.67447544 -161.19750105 2660.8560743 C-161.88306852 2655.70141897 -161.81052172 2650.59977464 -161.79840843 2645.40528163 C-161.79956228 2644.1962365 -161.80071612 2642.98719137 -161.80190493 2641.74150851 C-161.80409922 2638.37859284 -161.80179937 2635.01573407 -161.7976268 2631.65282383 C-161.79419254 2627.99695752 -161.79656341 2624.34109427 -161.79820429 2620.68522736 C-161.80027866 2614.27568488 -161.79863316 2607.86615168 -161.79456608 2601.45661029 C-161.78853524 2591.92583131 -161.78822989 2582.39505819 -161.78910807 2572.86427765 C-161.79042257 2556.83260301 -161.78707827 2540.8009325 -161.78109066 2524.76925906 C-161.77517625 2508.89293388 -161.77132524 2493.01661042 -161.77023785 2477.14028414 C-161.77013474 2475.66028444 -161.77013474 2475.66028444 -161.77002955 2474.15038575 C-161.76969122 2469.13972753 -161.76938983 2464.1290693 -161.76910267 2459.11841107 C-161.76700154 2423.61603321 -161.76026217 2388.1136576 -161.75080006 2352.611281 C-161.74161761 2318.11844258 -161.73453302 2283.62560477 -161.73029224 2249.13276538 C-161.73009496 2247.5382974 -161.73009496 2247.5382974 -161.72989368 2245.91161794 C-161.72857518 2235.23687492 -161.72729936 2224.5621319 -161.72605482 2213.88738886 C-161.72351852 2192.1411679 -161.72069727 2170.39494698 -161.71770374 2148.64872607 C-161.71756645 2147.6488417 -161.71742916 2146.64895732 -161.71728771 2145.61877342 C-161.70808505 2078.83356017 -161.69223961 2012.04834817 -161.6753606 1945.26313647 C-162.29034575 1945.26376039 -162.9053309 1945.26438431 -163.53895196 1945.26502714 C-230.51534041 1945.33283453 -297.49173278 1945.39565317 -364.46814625 1945.43250903 C-365.46911824 1945.43306126 -366.47009023 1945.43361348 -367.5013947 1945.43418245 C-389.25687286 1945.44615496 -411.01235138 1945.45723556 -432.76783046 1945.46739779 C-443.43720257 1945.472387 -454.10657458 1945.47757323 -464.77594654 1945.48286303 C-466.36851577 1945.48364759 -466.36851577 1945.48364759 -467.99325811 1945.48444799 C-502.38676492 1945.50148372 -536.78024539 1945.53152174 -571.17373625 1945.56832535 C-606.52687718 1945.60608702 -641.88000353 1945.6306855 -677.23316428 1945.63879643 C-682.23018518 1945.639949 -687.22720604 1945.64125154 -692.22422688 1945.64264544 C-693.20768156 1945.64291513 -694.19113624 1945.64318483 -695.20439258 1945.64346269 C-711.01506577 1945.64818372 -726.82569383 1945.66672018 -742.63634864 1945.69046461 C-758.54364981 1945.71405783 -774.45090637 1945.72299732 -790.35822441 1945.71714198 C-799.80111313 1945.71410703 -809.24383818 1945.72214449 -818.68669725 1945.74632664 C-825.00657918 1945.76140061 -831.32635476 1945.76173921 -837.64624422 1945.75046372 C-841.239564 1945.74446376 -844.83257575 1945.74452028 -848.42586161 1945.7626692 C-888.83086275 1945.95458013 -924.37527774 1934.90200449 -953.6753606 1906.26313647 C-954.53774342 1905.46262866 -955.40012623 1904.66212084 -956.28864185 1903.83735522 C-973.72007492 1887.27342738 -985.10754746 1864.86178909 -991.4253606 1841.88813647 C-991.62419849 1841.18261645 -991.82303639 1840.47709643 -992.02789967 1839.75019702 C-996.77740973 1821.41407391 -995.96621283 1802.36405781 -995.93849707 1783.58777587 C-995.93429683 1779.23584573 -995.94174556 1774.88393207 -995.94764958 1770.53200605 C-995.9563847 1762.9167461 -995.95773329 1755.30151305 -995.95414631 1747.68624934 C-995.94882626 1736.36158681 -995.9549477 1725.0369502 -995.96322924 1713.71229049 C-995.97845286 1692.30696322 -995.98017599 1670.9016478 -995.97770622 1649.49631626 C-995.97587205 1632.96420372 -995.97763576 1616.43209506 -995.98193066 1599.89998301 C-995.98253306 1597.52303636 -995.98313426 1595.14608971 -995.98373426 1592.76914306 C-995.98464154 1589.18710447 -995.9855502 1585.60506587 -995.98646661 1582.02302727 C-995.99489374 1548.72765309 -995.9992335 1515.43228037 -995.99505989 1482.13690528 C-995.99490352 1480.88226827 -995.99474714 1479.62763127 -995.99458602 1478.33497496 C-995.99378027 1471.97629075 -995.9929345 1465.61760654 -995.99207272 1459.25892234 C-995.99190164 1457.9961168 -995.99173055 1456.73331127 -995.99155428 1455.43223889 C-995.99120762 1452.87854062 -995.99085909 1450.32484234 -995.99050869 1447.77114406 C-995.98515198 1408.03921804 -995.99308147 1368.30731421 -996.01154224 1328.57539233 C-996.03226961 1283.9131695 -996.04298355 1239.25096041 -996.03896676 1194.5887325 C-996.03857143 1189.82427792 -996.03820988 1185.05982334 -996.03786938 1180.29536875 C-996.03777865 1179.12228151 -996.03768791 1177.94919426 -996.03759443 1176.74055892 C-996.03642967 1159.05080635 -996.04306755 1141.3610677 -996.0536813 1123.67131861 C-996.06574372 1103.5468524 -996.06728024 1083.42241677 -996.05489113 1063.29795009 C-996.04827292 1052.04467818 -996.04986962 1040.79147946 -996.06347965 1029.53821344 C-996.07174799 1022.00961867 -996.06899572 1014.4810785 -996.05750438 1006.95248814 C-996.05127155 1002.67080289 -996.04958555 998.38926003 -996.06136771 994.10758323 C-996.15294222 958.31218022 -992.99015906 924.35200997 -971.6753606 894.26313647 C-970.98313404 893.27442553 -970.29090748 892.28571459 -969.57770435 891.26704272 C-947.33210905 860.92538769 -914.77331371 840.53591694 -877.4733666 834.76799204 C-861.87054628 832.69396404 -846.01696726 833.12062337 -830.31408636 833.14087028 C-826.74336404 833.14434385 -823.17264452 833.14192628 -819.60192154 833.14029279 C-813.35892953 833.13823052 -807.1159471 833.13984308 -800.8729562 833.14393099 C-791.59001124 833.14999248 -782.30707227 833.15026435 -773.02412569 833.14938901 C-757.40500972 833.14807823 -741.78589799 833.1514046 -726.16678326 833.15740641 C-710.70983953 833.16333063 -695.25289757 833.16717381 -679.79595272 833.16825923 C-678.35243906 833.16836234 -678.35243906 833.16836234 -676.87976352 833.16846753 C-671.9921846 833.16880588 -667.10460568 833.16910726 -662.21702676 833.1693944 C-627.63030155 833.17149283 -593.04357865 833.17822465 -558.45685474 833.18769702 C-524.86375591 833.19688662 -491.27065771 833.2039677 -457.67755787 833.20820483 C-456.1233585 833.20840212 -456.1233585 833.20840212 -454.53776116 833.20860339 C-444.13215175 833.20992195 -433.72654234 833.21119776 -423.32093293 833.21244225 C-402.12495294 833.21497822 -380.92897298 833.21779948 -359.73299305 833.22079333 C-358.75851218 833.22093062 -357.78403131 833.22106791 -356.78002071 833.22120936 C-291.74513305 833.23040451 -226.71024667 833.24624906 -161.6753606 833.26313647 C-161.67598453 832.64901945 -161.67660845 832.03490242 -161.67725128 831.40217579 C-161.74505875 764.52024738 -161.80787738 697.63831503 -161.84473316 630.75636157 C-161.84556151 629.25701819 -161.84556151 629.25701819 -161.84640658 627.72738505 C-161.8583791 606.00254009 -161.8694597 584.27769476 -161.87962192 562.55284888 C-161.88461113 551.89849805 -161.88979736 541.24414732 -161.89508717 530.58979663 C-161.8956102 529.52957865 -161.89613324 528.46936068 -161.89667212 527.37701489 C-161.91370781 493.03200986 -161.94374581 458.68703122 -161.98054949 424.34204217 C-162.01831126 389.0387195 -162.04290966 353.73541142 -162.05102056 318.43206889 C-162.05217313 313.44207529 -162.05347568 308.45208173 -162.05486958 303.46208819 C-162.05527411 301.98898089 -162.05527411 301.98898089 -162.05568682 300.48611385 C-162.06040783 284.69775662 -162.07894423 268.9094446 -162.10268874 253.12110578 C-162.12628212 237.23620875 -162.13522142 221.35135639 -162.12936611 205.46644246 C-162.12633119 196.03688435 -162.13436837 186.60749016 -162.15855078 177.17796175 C-162.17362498 170.86696565 -162.17396318 164.55607605 -162.16268786 158.2450724 C-162.15668802 154.65682767 -162.15674391 151.0688914 -162.17489333 147.48068064 C-162.36701411 107.08965977 -151.30285255 71.55158061 -122.6753606 42.26313647 C-121.87485279 41.40075366 -121.07434498 40.53837084 -120.24957935 39.64985522 C-103.68565151 22.21842216 -81.27401322 10.83094961 -58.3003606 4.51313647 C-57.59484058 4.31429858 -56.88932057 4.11546069 -56.16242115 3.91059741 C-37.82629805 -0.83891265 -18.77628194 -0.02771576 0 0 Z M116.3246394 279.26313647 C116.28596752 355.65169116 116.28596752 355.65169116 116.2465144 433.58344897 C116.22285801 463.87136592 116.19893016 494.15927781 116.16998799 524.44718941 C116.15303281 542.21213943 116.13626319 559.97708961 116.12006569 577.74204033 C116.11810608 579.89073972 116.11614063 582.0394391 116.11416927 584.18813848 C116.08281309 618.41778223 116.06430732 652.64741801 116.05254693 686.87707363 C116.04038755 722.06903463 116.01515311 757.26096276 115.97356326 792.45290186 C115.96768952 797.42819919 115.96196462 802.40349667 115.95633037 807.37879428 C115.95466019 808.84754985 115.95466019 808.84754985 115.95295626 810.34597726 C115.9354445 826.08185328 115.93163812 841.81770394 115.93301019 857.5535884 C115.93409654 873.38925138 115.92061738 889.22484969 115.89247511 905.06048814 C115.87621053 914.45850213 115.87090912 923.85636955 115.88166765 933.25439226 C115.88776646 939.54694584 115.87919858 945.83937363 115.8591471 952.13189781 C115.84815864 955.70794243 115.84312549 959.28369087 115.85612695 962.85973559 C115.98380228 1001.15338049 107.45332516 1034.57840861 82.3246394 1064.26313647 C81.27469799 1065.51610522 81.27469799 1065.51610522 80.20354565 1066.79438647 C74.79306079 1073.04393048 68.89526119 1078.26007731 62.3246394 1083.26313647 C61.15674877 1084.15452319 61.15674877 1084.15452319 59.9652644 1085.06391772 C41.77968431 1098.33695017 21.46687961 1106.44846286 -0.6753606 1110.26313647 C-1.62847191 1110.4329001 -2.58158322 1110.60266372 -3.56357668 1110.7775717 C-8.89123101 1111.52642007 -14.23982755 1111.4067086 -19.60941116 1111.40180167 C-21.41711194 1111.406065 -21.41711194 1111.406065 -23.26133193 1111.41041445 C-26.60861069 1111.41730579 -29.95583953 1111.4197556 -33.30312181 1111.42034187 C-36.94378661 1111.42207297 -40.58444029 1111.42955949 -44.22509859 1111.43631842 C-50.60638655 1111.44737163 -56.98767055 1111.45474572 -63.36896603 1111.45971736 C-72.85772777 1111.46712664 -82.34647573 1111.48021056 -91.83522936 1111.49446311 C-107.79660918 1111.51827682 -123.75799146 1111.53747967 -139.7193803 1111.55406245 C-155.525105 1111.57049854 -171.33082512 1111.58897923 -187.13654415 1111.61019572 C-188.11898284 1111.61151333 -189.10142153 1111.61283093 -190.11363109 1111.61418847 C-195.10286026 1111.62089047 -200.09208938 1111.62762906 -205.08131849 1111.63438173 C-240.42784697 1111.68215564 -275.77437972 1111.72533755 -311.12091724 1111.76582202 C-345.4614152 1111.80516471 -379.80190959 1111.84660223 -414.14240162 1111.89082202 C-416.30152653 1111.89359936 -418.46065144 1111.89637664 -420.61977635 1111.89915385 C-438.16333016 1111.9217308 -455.70688379 1111.94445246 -473.25043737 1111.96720921 C-554.39207136 1112.07235831 -635.53371451 1112.1669316 -716.6753606 1112.26313647 C-716.6753606 1295.41313647 -716.6753606 1478.56313647 -716.6753606 1667.26313647 C-640.28680592 1667.30180834 -640.28680592 1667.30180834 -562.3550481 1667.34126147 C-532.06713115 1667.36491786 -501.77921926 1667.3888457 -471.49130766 1667.41778787 C-453.72635764 1667.43474305 -435.96140747 1667.45151267 -418.19645674 1667.46771018 C-416.04775736 1667.46966978 -413.89905797 1667.47163523 -411.7503586 1667.47360659 C-377.52071485 1667.50496277 -343.29107907 1667.52346854 -309.06142344 1667.53522894 C-273.86946245 1667.54738831 -238.67753431 1667.57262276 -203.48559521 1667.61421261 C-198.51029788 1667.62008635 -193.5350004 1667.62581125 -188.5597028 1667.63144549 C-187.09094722 1667.63311568 -187.09094722 1667.63311568 -185.59251981 1667.63481961 C-169.85664379 1667.65233137 -154.12079313 1667.65613775 -138.38490867 1667.65476568 C-122.54924569 1667.65367932 -106.71364738 1667.66715848 -90.87800893 1667.69530075 C-81.47999495 1667.71156533 -72.08212753 1667.71686675 -62.68410481 1667.70610822 C-56.39155124 1667.70000941 -50.09912344 1667.70857729 -43.80659926 1667.72862877 C-40.23055465 1667.73961722 -36.6548062 1667.74465038 -33.07876149 1667.73164892 C5.21488341 1667.60397359 38.63991154 1676.1344507 68.3246394 1701.26313647 C69.57760815 1702.31307788 69.57760815 1702.31307788 70.8558894 1703.38423022 C77.1054334 1708.79471508 82.32158023 1714.69251468 87.3246394 1721.26313647 C88.21602611 1722.43102709 88.21602611 1722.43102709 89.12542065 1723.62251147 C102.39845309 1741.80809156 110.50996579 1762.12089625 114.3246394 1784.26313647 C114.49440302 1785.21624778 114.66416665 1786.16935908 114.83907463 1787.15135255 C115.58792299 1792.47900688 115.46821152 1797.82760341 115.4633046 1803.19718703 C115.46614681 1804.40232088 115.46898903 1805.60745474 115.47191738 1806.8491078 C115.47880872 1810.19638656 115.48125852 1813.54361539 115.4818448 1816.89089768 C115.48357589 1820.53156247 115.49106241 1824.17221616 115.49782135 1827.81287446 C115.50887456 1834.19416242 115.51624864 1840.57544642 115.52122028 1846.95674189 C115.52862957 1856.44550363 115.54171349 1865.9342516 115.55596604 1875.42300522 C115.57977975 1891.38438505 115.5989826 1907.34576732 115.61556538 1923.30715617 C115.63200147 1939.11288086 115.65048215 1954.91860099 115.67169865 1970.72432002 C115.67301625 1971.70675871 115.67433386 1972.6891974 115.67569139 1973.70140696 C115.6823934 1978.69063613 115.68913199 1983.67986525 115.69588465 1988.66909435 C115.74365857 2024.01562284 115.78684048 2059.36215559 115.82732494 2094.70869311 C115.86666763 2129.04919106 115.90810516 2163.38968545 115.95232494 2197.73017749 C115.95510228 2199.8893024 115.95787956 2202.04842731 115.96065678 2204.20755222 C115.98323372 2221.75110603 116.00595538 2239.29465966 116.02871213 2256.83821324 C116.13386123 2337.97984723 116.22843452 2419.12149038 116.3246394 2500.26313647 C299.4746394 2500.26313647 482.6246394 2500.26313647 671.3246394 2500.26313647 C671.35042065 2449.33743334 671.3762019 2398.41173022 671.4027644 2345.94282397 C671.42642078 2315.65490702 671.45034863 2285.36699513 671.4792908 2255.07908353 C671.49624598 2237.31413351 671.5130156 2219.54918333 671.5292131 2201.78423261 C671.53117271 2199.63553322 671.53313816 2197.48683384 671.53510952 2195.33813446 C671.5664657 2161.10849071 671.58497147 2126.87885493 671.59673186 2092.64919931 C671.60889124 2057.45723831 671.63412568 2022.26531018 671.67571554 1987.07337107 C671.68158927 1982.09807375 671.68731418 1977.12277626 671.69294842 1972.14747866 C671.69406188 1971.16830828 671.69517533 1970.18913789 671.69632253 1969.18029568 C671.71383429 1953.44441966 671.71764067 1937.708569 671.7162686 1921.97268454 C671.71518225 1906.13702156 671.72866141 1890.30142325 671.75680368 1874.4657848 C671.77306826 1865.06777081 671.77836968 1855.66990339 671.76761114 1846.27188068 C671.76151233 1839.9793271 671.77008021 1833.68689931 671.79013169 1827.39437513 C671.80112015 1823.81833051 671.8061533 1820.24258207 671.79315184 1816.66653735 C671.66547651 1778.37289245 680.19595363 1744.94786433 705.3246394 1715.26313647 C706.02460033 1714.42782397 706.72456127 1713.59251147 707.44573315 1712.73188647 C712.856218 1706.48234246 718.75401761 1701.26619563 725.3246394 1696.26313647 C726.49253002 1695.37174975 726.49253002 1695.37174975 727.6840144 1694.46235522 C745.86959449 1681.18932277 766.18239918 1673.07781008 788.3246394 1669.26313647 C789.2777507 1669.09337284 790.23086201 1668.92360922 791.21285547 1668.74870124 C796.5405098 1667.99985287 801.88910634 1668.11956434 807.25868996 1668.12447127 C808.46382381 1668.12162905 809.66895766 1668.11878683 810.91061072 1668.11585849 C814.25788949 1668.10896715 817.60511832 1668.10651734 820.95240061 1668.10593107 C824.5930654 1668.10419997 828.23371908 1668.09671345 831.87437739 1668.08995452 C838.25566534 1668.07890131 844.63694935 1668.07152722 851.01824482 1668.06655558 C860.50700656 1668.0591463 869.99575453 1668.04606238 879.48450815 1668.03180983 C895.44588798 1668.00799612 911.40727025 1667.98879326 927.36865909 1667.97221049 C943.17438379 1667.9557744 958.98010391 1667.93729371 974.78582294 1667.91607722 C975.76826163 1667.91475961 976.75070032 1667.91344201 977.76290988 1667.91208447 C982.75213905 1667.90538247 987.74136818 1667.89864388 992.73059728 1667.89189121 C1028.07712576 1667.8441173 1063.42365852 1667.80093539 1098.77019604 1667.76045092 C1133.11069399 1667.72110823 1167.45118838 1667.67967071 1201.79168041 1667.63545092 C1203.95080532 1667.63267358 1206.10993023 1667.6298963 1208.26905514 1667.62711909 C1225.81260896 1667.60454214 1243.35616258 1667.58182048 1260.89971616 1667.55906373 C1342.04135015 1667.45391463 1423.1829933 1667.35934134 1504.3246394 1667.26313647 C1504.3246394 1484.11313647 1504.3246394 1300.96313647 1504.3246394 1112.26313647 C1427.93608471 1112.22446459 1427.93608471 1112.22446459 1350.0043269 1112.18501147 C1319.71640994 1112.16135508 1289.42849806 1112.13742724 1259.14058645 1112.10848507 C1241.37563644 1112.09152989 1223.61068626 1112.07476027 1205.84573554 1112.05856276 C1203.69703615 1112.05660316 1201.54833676 1112.05463771 1199.39963739 1112.05266634 C1165.16999364 1112.02131016 1130.94035786 1112.0028044 1096.71070223 1111.991044 C1061.51874124 1111.97888463 1026.3268131 1111.95365018 991.134874 1111.91206033 C986.15957668 1111.90618659 981.18427919 1111.90046169 976.20898159 1111.89482745 C974.74022601 1111.89315726 974.74022601 1111.89315726 973.24179861 1111.89145333 C957.50592258 1111.87394157 941.77007192 1111.87013519 926.03418746 1111.87150726 C910.19852448 1111.87259362 894.36292618 1111.85911446 878.52728772 1111.83097219 C869.12927374 1111.81470761 859.73140632 1111.80940619 850.3333836 1111.82016472 C844.04083003 1111.82626353 837.74840223 1111.81769565 831.45587805 1111.79764417 C827.87983344 1111.78665572 824.304085 1111.78162256 820.72804028 1111.79462402 C782.43439538 1111.92229935 749.00936725 1103.39182224 719.3246394 1078.26313647 C718.4893269 1077.56317553 717.6540144 1076.86321459 716.7933894 1076.14204272 C710.54384539 1070.73155786 705.32769856 1064.83375826 700.3246394 1058.26313647 C699.43325268 1057.09524584 699.43325268 1057.09524584 698.52385815 1055.90376147 C685.2508257 1037.71818138 677.13931301 1017.40537669 673.3246394 995.26313647 C673.15487577 994.31002516 672.98511214 993.35691386 672.81020416 992.37492039 C672.0613558 987.04726606 672.18106727 981.69866953 672.1859742 976.32908591 C672.18313198 975.12395206 672.18028976 973.9188182 672.17736141 972.67716514 C672.17047007 969.32988638 672.16802027 965.98265755 672.167434 962.63537526 C672.1657029 958.99471047 672.15821638 955.35405678 672.15145744 951.71339848 C672.14040423 945.33211052 672.13303015 938.95082652 672.12805851 932.56953105 C672.12064922 923.08076931 672.1075653 913.59202134 672.09331276 904.10326772 C672.06949904 888.14188789 672.05029619 872.18050562 672.03371342 856.21911677 C672.01727733 840.41339207 671.99879664 824.60767195 671.97758015 808.80195292 C671.97626254 807.81951423 671.97494493 806.83707554 671.9735874 805.82486598 C671.96688539 800.83563681 671.96014681 795.84640769 671.95339414 790.85717858 C671.90562022 755.5106501 671.86243831 720.16411735 671.82195385 684.81757983 C671.78261116 650.47708188 671.74117363 616.13658749 671.69695385 581.79609545 C671.69417651 579.63697054 671.69139923 577.47784563 671.68862201 575.31872072 C671.66604507 557.77516691 671.64332341 540.23161328 671.62056666 522.6880597 C671.51541756 441.54642571 671.42084427 360.40478256 671.3246394 279.26313647 C488.1746394 279.26313647 305.0246394 279.26313647 116.3246394 279.26313647 Z " fill="#9DD2F2" transform="translate(1272.6753606041893,276.73686353024095)"/>
</svg>
